<svg xmlns="http://www.w3.org/2000/svg" xmlns:xlink="http://www.w3.org/1999/xlink" viewBox="0 0 399.76 150.91"><defs><style>.cls-1{fill:none;}.cls-2{clip-path:url(#clip-path);}.cls-3{fill:url(#linear-gradient);}.cls-4{clip-path:url(#clip-path-2);}.cls-5{clip-path:url(#clip-path-3);}.cls-6{fill:url(#linear-gradient-2);}.cls-7{fill:#878787;}</style><clipPath id="clip-path" transform="translate(0 0)"><path class="cls-1" d="M22.82,0C10.51,0,.8,38.3,0,73.48c0,.76,0,3.57,0,4.33.78,35.17,10.31,73.1,22.8,73.1H376.94c12.48,0,22-37.93,22.8-73.1,0-.76,0-3.57,0-4.33C399,38.3,389.24,0,376.94,0Z"/></clipPath><linearGradient id="linear-gradient" x1="-700.94" y1="616.27" x2="-699.94" y2="616.27" gradientTransform="matrix(399.75, 0, 0, -399.75, 280196.91, 246429.06)" gradientUnits="userSpaceOnUse"><stop offset="0" stop-color="#ccaf6c"/><stop offset="0.25" stop-color="#fff2ce"/><stop offset="0.51" stop-color="#ccaf6c"/><stop offset="0.76" stop-color="#fff2ce"/><stop offset="1" stop-color="#ccaf6c"/></linearGradient><clipPath id="clip-path-2" transform="translate(0 0)"><rect class="cls-1" width="399.76" height="150.91"/></clipPath><clipPath id="clip-path-3" transform="translate(0 0)"><path class="cls-1" d="M78.82,84.15h8.27a4.93,4.93,0,0,1,3.61,1.41A4.64,4.64,0,0,1,92.14,89a14.15,14.15,0,0,1-1.08,5.44A15.35,15.35,0,0,1,88.18,99,16.05,16.05,0,0,1,84,102.27a13.46,13.46,0,0,1-5.09,1.57Zm-6.36-7.58a8.56,8.56,0,0,0-1,.05.79.79,0,0,0-.77.77,9.28,9.28,0,0,0,0,1v41.06a2.63,2.63,0,0,0,.25,1.45c.16.22.52.32,1.06.32h5.55a1.31,1.31,0,0,0,1-.32,2.5,2.5,0,0,0,.27-1.45v-7.08a17.3,17.3,0,0,0,7.18-2l4.68,9.93a1.28,1.28,0,0,0,.47.66,1.18,1.18,0,0,0,.71.25H99c.54,0,.82-.21.82-.63a1,1,0,0,0-.11-.41,4.54,4.54,0,0,1-.21-.45l-.13-.28c-.55-1.11-1.09-2.24-1.63-3.35s-1.06-2.26-1.58-3.41l-1.6-3.4L93,105.84a24.07,24.07,0,0,0,5.23-7.4,21.57,21.57,0,0,0,1.95-9.16,13.82,13.82,0,0,0-.89-5,11.57,11.57,0,0,0-2.59-4,12.07,12.07,0,0,0-4.16-2.7,15,15,0,0,0-5.56-1Zm33.87,0c-.69,0-1,.38-1,1.14v42.6c0,.63.35,1,1,1h23.85A1.17,1.17,0,0,0,131,121a1,1,0,0,0,.32-.77v-5.4c0-.73-.35-1.09-1.05-1.09H113.47V98.26h13.06a1,1,0,0,0,.79-.32,1.12,1.12,0,0,0,.25-.68V92.41a.8.8,0,0,0-.3-.71,1.29,1.29,0,0,0-.74-.2H113.47V84.15h15.58a1,1,0,0,0,.84-.34,1.35,1.35,0,0,0,.25-.79V77.75c0-.78-.36-1.18-1.09-1.18Zm98,0a1,1,0,0,0-.77.3,1.09,1.09,0,0,0-.28.75v42.64c0,.67.35,1,1,1h6c.76,0,1.14-.33,1.14-1V77.62a.88.88,0,0,0-.39-.77,1.34,1.34,0,0,0-.75-.28ZM235,86l6.54,19.47H228.77Zm-2.36-9.44a1.23,1.23,0,0,0-.91.32,1.54,1.54,0,0,0-.41.64q-4,10.75-7.88,21.32t-7.79,21.28a.29.29,0,0,0-.09.22v.28c0,.42.3.63.91.63h6.13a1.12,1.12,0,0,0,.7-.27,2.32,2.32,0,0,0,.57-.64l2.63-8.12h16.9l2.55,8.12a1.58,1.58,0,0,0,.48.69,1.43,1.43,0,0,0,.88.22h6q1,0,1-.63a.39.39,0,0,0,0-.14.53.53,0,0,1,0-.23V120l-15-41.42-.5-1.27a1.41,1.41,0,0,0-.34-.53,1.13,1.13,0,0,0-.8-.25Zm50.29,0a1,1,0,0,0-.77.3,1.08,1.08,0,0,0-.27.75V90.51c-6.72-8.73-12.88-12.39-14.81-13.39a3.89,3.89,0,0,0-.94-.47,1.26,1.26,0,0,0-.43-.08H259.8a1,1,0,0,0-.77.3,1.08,1.08,0,0,0-.27.75v42.64c0,.67.34,1,1,1h5.95c.79,0,1.18-.33,1.18-1v-33c1.48.75,8.24,4.65,15,16.63v16.37c0,.67.34,1,1,1h5.95c.79,0,1.18-.33,1.18-1V77.62a.88.88,0,0,0-.39-.77,1.34,1.34,0,0,0-.79-.28Zm-149.36,17c0,25.85,25.87,27.2,28.13,27.65a1.28,1.28,0,0,0,1.54-1.26V98.66a1.06,1.06,0,0,0-1.05-1h-6a1,1,0,0,0-1,1v12.86c-7.32-2-13.2-6.2-13.06-17.63.07-5.34,3.66-11.06,8.41-11.06,4.43,0,7.55,2.45,8.66,3.13a1,1,0,0,0,1.45-.37l2.5-4.35a1,1,0,0,0-.29-1.38,23.07,23.07,0,0,0-12.94-4.29c-7.58,0-16.27,6.12-16.27,18m33.2,0c0,25.85,25.88,27.2,28.13,27.65a1.28,1.28,0,0,0,1.54-1.26V98.66a1.06,1.06,0,0,0-1-1h-6a1.06,1.06,0,0,0-1.05,1v12.86c-7.32-2-13.2-6.2-13-17.63.06-5.34,3.66-11.06,8.41-11.06,4.42,0,7.54,2.45,8.65,3.13a1,1,0,0,0,1.46-.37l2.49-4.35a1,1,0,0,0-.29-1.38,23,23,0,0,0-12.94-4.29c-7.58,0-16.27,6.12-16.27,18m141.38,20.63a7.09,7.09,0,0,1-2.16-1.52,7.39,7.39,0,0,1-1.43-2.2,6.82,6.82,0,0,1-.52-2.66V89.27a7.46,7.46,0,0,1,.5-2.72,6.39,6.39,0,0,1,1.41-2.2,6.79,6.79,0,0,1,2.11-1.47,6.38,6.38,0,0,1,2.61-.55h3.71a6.67,6.67,0,0,1,2.68.57,6.76,6.76,0,0,1,2.15,1.52,6.91,6.91,0,0,1,1.43,2.2,6.78,6.78,0,0,1,.53,2.65v18.56a7.39,7.39,0,0,1-.5,2.72,6.58,6.58,0,0,1-1.41,2.21,6.91,6.91,0,0,1-2.11,1.47,6.28,6.28,0,0,1-2.59.54h-3.77a6.47,6.47,0,0,1-2.64-.56m4.39-38.95a26.73,26.73,0,0,0-7,.92,15.57,15.57,0,0,0-4.48,2.55,14.43,14.43,0,0,0-3.29,3.83,12.73,12.73,0,0,0-1.68,4.81,19.92,19.92,0,0,0-.25,2.18c-.05.72-.07,1.46-.07,2.22v13.57c0,.76,0,1.5.07,2.24a13.66,13.66,0,0,0,.3,2.21,12.59,12.59,0,0,0,1.68,4.78,14.84,14.84,0,0,0,3.27,3.83,14.48,14.48,0,0,0,4.45,2.54,15.12,15.12,0,0,0,4.94.91h4.25a14.72,14.72,0,0,0,4.94-.93,15.49,15.49,0,0,0,4.47-2.54,14.29,14.29,0,0,0,3.3-3.83,13.15,13.15,0,0,0,1.68-4.81c.12-.73.2-1.45.25-2.18s.07-1.46.07-2.22V91.77c0-.76,0-1.5-.07-2.25a16.38,16.38,0,0,0-.3-2.2,12.53,12.53,0,0,0-1.68-4.78,14.74,14.74,0,0,0-7.72-6.38,27.51,27.51,0,0,0-7.07-.9ZM47,48.15c0-.44,0-.91,0-1.43v-17h8a5,5,0,0,1,3.57,1.38,4.64,4.64,0,0,1,1.43,3.47,15.79,15.79,0,0,1-1,5.65,14.27,14.27,0,0,1-6.77,7.69,13.39,13.39,0,0,1-5,1.5c-.06-.39-.1-.81-.14-1.25m-6.4-26a8.83,8.83,0,0,0-1,0,1,1,0,0,0-.55.21.81.81,0,0,0-.22.52A8.9,8.9,0,0,0,38.76,24v41.1A2.73,2.73,0,0,0,39,66.5a1.35,1.35,0,0,0,1.07.32h5.54a1.36,1.36,0,0,0,1.05-.32,2.5,2.5,0,0,0,.27-1.45V58a23.32,23.32,0,0,0,8.2-2.49A24.37,24.37,0,0,0,61.8,50.4a23.24,23.24,0,0,0,4.47-7.08,22.54,22.54,0,0,0,1.61-8.49,13.68,13.68,0,0,0-.89-5,11.62,11.62,0,0,0-2.59-4,12,12,0,0,0-4.16-2.69,15,15,0,0,0-5.55-1Zm43.65,9.44L90.77,51H78Zm-2.36-9.44a1.24,1.24,0,0,0-.91.32,1.51,1.51,0,0,0-.41.63q-4,10.76-7.88,21.33T64.88,65.69a.29.29,0,0,0-.09.22v.27c0,.43.3.64.91.64h6.13a1.1,1.1,0,0,0,.7-.27,2.48,2.48,0,0,0,.57-.64l2.64-8.12h16.9l2.54,8.12a1.54,1.54,0,0,0,.48.68,1.42,1.42,0,0,0,.88.23h6c.69,0,1-.21,1-.64a.36.36,0,0,0-.05-.13.53.53,0,0,1,0-.23v-.23l-15-41.42-.5-1.27a1.33,1.33,0,0,0-.34-.52,1.07,1.07,0,0,0-.79-.25Zm34.2,7.58h8.27a5,5,0,0,1,3.61,1.4,4.67,4.67,0,0,1,1.43,3.45A14.2,14.2,0,0,1,128.31,40a15.35,15.35,0,0,1-2.88,4.56,16.1,16.1,0,0,1-4.23,3.26,13.53,13.53,0,0,1-5.09,1.57Zm-6.36-7.58a8.83,8.83,0,0,0-1,0,.9.9,0,0,0-.54.23.87.87,0,0,0-.23.55,8.83,8.83,0,0,0,0,1V65.05a2.73,2.73,0,0,0,.25,1.45,1.35,1.35,0,0,0,1.07.32h5.54a1.37,1.37,0,0,0,1-.32,2.5,2.5,0,0,0,.27-1.45V58a17.34,17.34,0,0,0,7.18-2l4.68,9.93a1.37,1.37,0,0,0,.47.66,1.18,1.18,0,0,0,.71.25h7.13c.54,0,.82-.21.82-.64a.86.86,0,0,0-.12-.4c-.07-.16-.14-.31-.2-.46l-.14-.27q-.82-1.68-1.62-3.36c-.53-1.12-1.06-2.25-1.58-3.4l-1.6-3.4-1.6-3.49a24.37,24.37,0,0,0,5.23-7.4,21.58,21.58,0,0,0,1.95-9.17,13.9,13.9,0,0,0-.89-5,11.64,11.64,0,0,0-2.6-4,12,12,0,0,0-4.16-2.69,15,15,0,0,0-5.55-1Zm127.73,0a1,1,0,0,0-.77.3,1,1,0,0,0-.27.74V65.82c0,.67.34,1,1,1h6c.76,0,1.14-.33,1.14-1V23.17a.9.9,0,0,0-.39-.77,1.33,1.33,0,0,0-.75-.27Zm30.69,9.44L274.67,51H261.86Zm-2.36-9.44a1.23,1.23,0,0,0-.91.32,1.51,1.51,0,0,0-.41.63q-4,10.76-7.88,21.33t-7.79,21.28a.29.29,0,0,0-.09.22v.27c0,.43.3.64.9.64h6.14a1.1,1.1,0,0,0,.7-.27,2.48,2.48,0,0,0,.57-.64l2.64-8.12h16.89l2.55,8.12a1.54,1.54,0,0,0,.48.68,1.42,1.42,0,0,0,.88.23h5.95c.7,0,1.05-.21,1.05-.64a.36.36,0,0,0-.05-.13.53.53,0,0,1,0-.23V65.6l-15-41.43-.5-1.27a1.33,1.33,0,0,0-.34-.52,1.13,1.13,0,0,0-.8-.25Zm49.08,0a1,1,0,0,0-.77.3,1,1,0,0,0-.27.74v12.9c-6.72-8.73-12.88-12.39-14.8-13.39a4,4,0,0,0-.95-.47h0a1.26,1.26,0,0,0-.43-.08h-5.95a1,1,0,0,0-.77.3,1,1,0,0,0-.27.74V65.82c0,.67.35,1,1,1h5.95c.79,0,1.19-.33,1.19-1v-33c1.48.75,8.23,4.65,15,16.63V65.82c0,.67.34,1,1,1h5.95c.79,0,1.19-.33,1.19-1V23.17a.9.9,0,0,0-.39-.77,1.37,1.37,0,0,0-.8-.27Zm-168.63,0a1,1,0,0,0-.8.32,1.21,1.21,0,0,0-.34.72l-3.82,42.65a1.37,1.37,0,0,0,.28.7.84.84,0,0,0,.72.3h5.91c.73,0,1.09-.35,1.09-1l3-28.54.18-.05L154,41.91l4.76,13.73a1.6,1.6,0,0,0,.38.68.84.84,0,0,0,.57.32h1.67a.74.74,0,0,0,.5-.32,2.29,2.29,0,0,0,.41-.68l6.39-18.45.18.05,2.86,28.58a.88.88,0,0,0,1,1h5.91a1,1,0,0,0,1.09-1l-3.82-42.6a1,1,0,0,0-.41-.77,1.32,1.32,0,0,0-.81-.27h-7.45a1.24,1.24,0,0,0-1.19.9l-5.49,15.07L154.89,23c-.24-.61-.6-.91-1.09-.91Zm40.62,0a1,1,0,0,0-.78.29,1.08,1.08,0,0,0-.27.75V65.82c0,.67.35,1,1.05,1h6c.76,0,1.13-.33,1.13-1V23.17a.91.91,0,0,0-.38-.77,1.33,1.33,0,0,0-.75-.27Zm13.06,17c0,25.85,25.87,27.2,28.13,27.65a1.28,1.28,0,0,0,1.54-1.26V44.22a1,1,0,0,0-1-1h-6a1,1,0,0,0-1.05,1V57.08c-7.32-2-13.2-6.2-13.05-17.63.06-5.33,3.65-11.06,8.41-11.06,4.42,0,7.54,2.45,8.65,3.13a1,1,0,0,0,1.46-.37l2.49-4.35a1,1,0,0,0-.29-1.38,23,23,0,0,0-12.94-4.29c-7.58,0-16.27,6.12-16.27,18M342.71,60.33a6.64,6.64,0,0,1-2.64-.56,6.79,6.79,0,0,1-2.15-1.53,7,7,0,0,1-2-4.85V34.83a7.43,7.43,0,0,1,.5-2.72,6.54,6.54,0,0,1,1.41-2.2A7.12,7.12,0,0,1,340,28.43a6.56,6.56,0,0,1,2.62-.54h3.71a6.34,6.34,0,0,1,2.67.57A6.76,6.76,0,0,1,351.14,30a7.26,7.26,0,0,1,1.43,2.2,6.92,6.92,0,0,1,.52,2.65V53.39a7.39,7.39,0,0,1-.5,2.72,6.39,6.39,0,0,1-1.41,2.2,6.82,6.82,0,0,1-2.11,1.48,6.4,6.4,0,0,1-2.58.54h-3.78m1.75-39.52a27.22,27.22,0,0,0-7,.93A15.72,15.72,0,0,0,333,24.28a14.49,14.49,0,0,0-3.3,3.84A12.9,12.9,0,0,0,328,32.93c-.12.72-.2,1.45-.25,2.17s-.07,1.47-.07,2.23V50.9c0,.75,0,1.5.07,2.24a16.16,16.16,0,0,0,.3,2.2,12.58,12.58,0,0,0,1.68,4.79A15,15,0,0,0,333,64a14.6,14.6,0,0,0,4.45,2.54,15.44,15.44,0,0,0,4.94.91h4.25a14.72,14.72,0,0,0,4.94-.93,15.78,15.78,0,0,0,4.48-2.54,14.43,14.43,0,0,0,3.29-3.83A12.85,12.85,0,0,0,361,55.3c.12-.73.2-1.46.25-2.18s.07-1.47.07-2.22V37.33c0-.76,0-1.51-.07-2.25a14.91,14.91,0,0,0-.3-2.2,12.64,12.64,0,0,0-1.68-4.79,14.78,14.78,0,0,0-7.72-6.37,27.88,27.88,0,0,0-7.06-.91Z"/></clipPath><linearGradient id="linear-gradient-2" x1="-700.97" y1="616.47" x2="-699.97" y2="616.47" gradientTransform="matrix(322.6, 0, 0, -322.6, 226168.99, 198941.78)" gradientUnits="userSpaceOnUse"><stop offset="0" stop-color="#ccaf6c"/><stop offset="0.25" stop-color="#fff2ce"/><stop offset="0.51" stop-color="#ccaf6c"/><stop offset="0.76" stop-color="#fff2ce"/><stop offset="1" stop-color="#ccaf6b"/></linearGradient></defs><title>logo-pr-vector</title><g id="Layer_2" data-name="Layer 2"><g id="Layer_1-2" data-name="Layer 1"><g class="cls-2"><rect class="cls-3" width="399.76" height="150.91"/></g><g class="cls-4"><path d="M394.22,69.42c-.69-31.17-9.3-65.11-20.2-65.11H25.73c-10.9,0-19.5,33.94-20.2,65.11,0,.67,0,3.16,0,3.83.7,31.16,9.14,65.1,20.2,65.1H374c11.06,0,19.51-33.94,20.2-65.1,0-.67,0-3.16,0-3.83" transform="translate(0 0)"/></g><g class="cls-5"><rect class="cls-6" x="38.76" y="20.81" width="322.6" height="101.04"/></g><g class="cls-4"><path class="cls-7" d="M386.11,75.45a2.74,2.74,0,1,1-2.74-2.74,2.74,2.74,0,0,1,2.74,2.74" transform="translate(0 0)"/><path class="cls-7" d="M375.63,75.45a2.74,2.74,0,1,1-2.74-2.74,2.74,2.74,0,0,1,2.74,2.74" transform="translate(0 0)"/><path class="cls-7" d="M365.15,75.45a2.74,2.74,0,1,1-2.73-2.74,2.73,2.73,0,0,1,2.73,2.74" transform="translate(0 0)"/><path class="cls-7" d="M354.67,75.45a2.73,2.73,0,1,1-2.73-2.74,2.73,2.73,0,0,1,2.73,2.74" transform="translate(0 0)"/><path class="cls-7" d="M344.19,75.45a2.73,2.73,0,1,1-2.73-2.74,2.73,2.73,0,0,1,2.73,2.74" transform="translate(0 0)"/><path class="cls-7" d="M62.4,75.46a2.73,2.73,0,1,1-2.73-2.74,2.73,2.73,0,0,1,2.73,2.74" transform="translate(0 0)"/><path class="cls-7" d="M51.92,75.46a2.73,2.73,0,1,1-2.73-2.74,2.73,2.73,0,0,1,2.73,2.74" transform="translate(0 0)"/><path class="cls-7" d="M41.45,75.46a2.74,2.74,0,1,1-2.74-2.74,2.74,2.74,0,0,1,2.74,2.74" transform="translate(0 0)"/><path class="cls-7" d="M31,75.46a2.74,2.74,0,1,1-2.73-2.74A2.73,2.73,0,0,1,31,75.46" transform="translate(0 0)"/><path class="cls-7" d="M20.49,75.46a2.73,2.73,0,1,1-2.73-2.74,2.73,2.73,0,0,1,2.73,2.74" transform="translate(0 0)"/></g></g></g></svg>